<svg width="116" height="115" viewBox="0 0 116 115" fill="none" xmlns="http://www.w3.org/2000/svg">
<g filter="url(#filter0_ii_1_387)">
<path d="M91.5425 23.9577L24.4591 91.041M43.6258 31.1452C43.6258 37.7611 38.2626 43.1244 31.6466 43.1244C25.0307 43.1244 19.6675 37.7611 19.6675 31.1452C19.6675 24.5293 25.0307 19.166 31.6466 19.166C38.2626 19.166 43.6258 24.5293 43.6258 31.1452ZM96.3342 83.8535C96.3342 90.4694 90.9709 95.8327 84.355 95.8327C77.7391 95.8327 72.3758 90.4694 72.3758 83.8535C72.3758 77.2376 77.7391 71.8744 84.355 71.8744C90.9709 71.8744 96.3342 77.2376 96.3342 83.8535Z" stroke="black" stroke-width="14.375" stroke-linecap="round" stroke-linejoin="round"/>
</g>
<defs>
<filter id="filter0_ii_1_387" x="7.68831" y="11.9785" width="100.625" height="95.8337" filterUnits="userSpaceOnUse" color-interpolation-filters="sRGB">
<feFlood flood-opacity="0" result="BackgroundImageFix"/>
<feBlend mode="normal" in="SourceGraphic" in2="BackgroundImageFix" result="shape"/>
<feColorMatrix in="SourceAlpha" type="matrix" values="0 0 0 0 0 0 0 0 0 0 0 0 0 0 0 0 0 0 127 0" result="hardAlpha"/>
<feOffset dx="-4.79167" dy="4.79167"/>
<feGaussianBlur stdDeviation="4.79167"/>
<feComposite in2="hardAlpha" operator="arithmetic" k2="-1" k3="1"/>
<feColorMatrix type="matrix" values="0 0 0 0 1 0 0 0 0 1 0 0 0 0 1 0 0 0 0.25 0"/>
<feBlend mode="normal" in2="shape" result="effect1_innerShadow_1_387"/>
<feColorMatrix in="SourceAlpha" type="matrix" values="0 0 0 0 0 0 0 0 0 0 0 0 0 0 0 0 0 0 127 0" result="hardAlpha"/>
<feOffset dx="4.79167" dy="4.79167"/>
<feGaussianBlur stdDeviation="7.1875"/>
<feComposite in2="hardAlpha" operator="arithmetic" k2="-1" k3="1"/>
<feColorMatrix type="matrix" values="0 0 0 0 0.2 0 0 0 0 0.199167 0 0 0 0 0.199217 0 0 0 0.1 0"/>
<feBlend mode="normal" in2="effect1_innerShadow_1_387" result="effect2_innerShadow_1_387"/>
</filter>
</defs>
</svg>
